<svg xmlns="http://www.w3.org/2000/svg" width="40.782" height="40.782" viewBox="0 0 40.782 40.782">
  <g id="Livello_1-2" transform="translate(0.013 0)">
    <path id="Tracciato_126" data-name="Tracciato 126" d="M38.77,18.82a16.641,16.641,0,0,1-1.78,7.52,16.815,16.815,0,0,1-15.04,9.3,16.641,16.641,0,0,1-7.52-1.78L3.15,37.62,6.91,26.34a16.513,16.513,0,0,1-1.78-7.52,16.815,16.815,0,0,1,9.3-15.04A16.513,16.513,0,0,1,21.95,2h.99A16.778,16.778,0,0,1,38.77,17.83Z" fill="none" stroke="#f1e625" stroke-miterlimit="10" stroke-width="4"/>
  </g>
</svg>
